# Blender v2.78 (sub 0) OBJ File: 'cube.blend'
# www.blender.org
mtllib cube.mtl
o Cube
v 1.000000 -1.000000 -1.000000
v 1.000000 -1.000000 1.000000
v -1.000000 -1.000000 1.000000
v -1.000000 -1.000000 -1.000000
v 1.000000 1.000000 -0.999999
v 0.999999 1.000000 1.000001
v -1.000000 1.000000 1.000000
v -1.000000 1.000000 -1.000000
v 1.000000 -1.000000 0.000000
v 0.000000 -1.000000 -1.000000
v 1.000000 0.000000 -1.000000
v 0.000000 -1.000000 1.000000
v 1.000000 0.000000 1.000000
v -1.000000 -1.000000 -0.000000
v -1.000000 0.000000 1.000000
v -1.000000 0.000000 -1.000000
v 1.000000 1.000000 0.000001
v 0.000000 1.000000 -1.000000
v -0.000001 1.000000 1.000000
v -1.000000 1.000000 -0.000000
v 1.000000 -1.000000 0.500000
v -0.500000 -1.000000 -1.000000
v 1.000000 0.500000 -1.000000
v -0.500000 -1.000000 1.000000
v 1.000000 0.500000 1.000000
v -1.000000 -1.000000 -0.500000
v -1.000000 0.500000 1.000000
v -1.000000 0.500000 -1.000000
v 1.000000 1.000000 0.500001
v -0.500000 1.000000 -1.000000
v -0.500000 1.000000 1.000000
v -1.000000 1.000000 -0.500000
v 1.000000 -1.000000 -0.500000
v 0.500000 -1.000000 -1.000000
v 1.000000 -0.500000 -1.000000
v 0.500000 -1.000000 1.000000
v 1.000000 -0.500000 1.000000
v -1.000000 -1.000000 0.500000
v -1.000000 -0.500000 1.000000
v -1.000000 -0.500000 -1.000000
v 1.000000 1.000000 -0.499999
v 0.500000 1.000000 -1.000000
v 0.499999 1.000000 1.000000
v -1.000000 1.000000 0.500000
v 1.000000 -1.000000 0.750000
v -0.750000 -1.000000 -1.000000
v 1.000000 0.750000 -1.000000
v -0.750000 -1.000000 1.000000
v 0.999999 0.750000 1.000000
v -1.000000 -1.000000 -0.750000
v -1.000000 0.750000 1.000000
v -1.000000 0.750000 -1.000000
v 1.000000 1.000000 0.750001
v -0.750000 1.000000 -1.000000
v -0.750000 1.000000 1.000000
v -1.000000 1.000000 -0.750000
v 1.000000 -1.000000 -0.250000
v 0.250000 -1.000000 -1.000000
v 1.000000 -0.250000 -1.000000
v 0.250000 -1.000000 1.000000
v 1.000000 -0.250000 1.000000
v -1.000000 -1.000000 0.250000
v -1.000000 -0.250000 1.000000
v -1.000000 -0.250000 -1.000000
v 1.000000 1.000000 -0.249999
v 0.250000 1.000000 -1.000000
v 0.249999 1.000000 1.000000
v -1.000000 1.000000 0.250000
v -0.750000 0.000000 -1.000000
v 0.000000 0.750000 -1.000000
v -1.000000 0.000000 -0.750000
v -1.000000 -0.750000 -0.000000
v -0.750000 0.000000 1.000000
v -0.000000 -0.750000 1.000000
v 1.000000 0.000000 0.750000
v 1.000000 -0.750000 0.000000
v 1.000000 -1.000000 0.250000
v -0.250000 -1.000000 -1.000000
v 1.000000 0.250000 -1.000000
v -0.250000 -1.000000 1.000000
v 1.000000 0.250000 1.000000
v -1.000000 -1.000000 -0.250000
v -1.000000 0.250000 1.000000
v -1.000000 0.250000 -1.000000
v 1.000000 1.000000 0.250001
v -0.250000 1.000000 -1.000000
v -0.250001 1.000000 1.000000
v -1.000000 1.000000 -0.250000
v 1.000000 -1.000000 -0.750000
v 0.750000 -1.000000 -1.000000
v 1.000000 -0.750000 -1.000000
v 0.750000 -1.000000 1.000000
v 1.000000 -0.750000 1.000000
v -1.000000 -1.000000 0.750000
v -1.000000 -0.750000 1.000000
v -1.000000 -0.750000 -1.000000
v 1.000000 1.000000 -0.749999
v 0.750000 1.000000 -1.000000
v 0.749999 1.000000 1.000000
v -1.000000 1.000000 0.750000
v 0.750000 0.000000 -1.000000
v 0.000000 -0.750000 -1.000000
v -1.000000 0.000000 0.750000
v -1.000000 0.750000 -0.000000
v 0.750000 0.000000 1.000000
v -0.000000 0.750000 1.000000
v 1.000000 0.000000 -0.750000
v 1.000000 0.750000 0.000000
v 1.000000 0.500000 -0.750000
v 1.000000 0.750000 -0.500000
v 1.000000 -0.500000 -0.750000
v 1.000000 -0.750000 -0.500000
v 1.000000 -0.500000 0.750000
v 1.000000 -0.750000 0.500000
v 0.750000 0.500000 1.000000
v 0.499999 0.750000 1.000000
v 0.750000 -0.500000 1.000000
v 0.500000 -0.750000 1.000000
v -0.750000 -0.500000 1.000000
v -0.500000 -0.750000 1.000000
v -1.000000 0.500000 0.750000
v -1.000000 0.750000 0.500000
v -1.000000 -0.500000 0.750000
v -1.000000 -0.750000 0.500000
v -1.000000 -0.500000 -0.750000
v -1.000000 -0.750000 -0.500000
v 0.750000 -0.500000 -1.000000
v 0.500000 -0.750000 -1.000000
v 0.750000 0.500000 -1.000000
v 0.500000 0.750000 -1.000000
v -0.750000 0.500000 -1.000000
v -0.500000 0.750000 -1.000000
v -0.750000 -0.500000 -1.000000
v -0.500000 -0.750000 -1.000000
v -1.000000 0.500000 -0.750000
v -1.000000 0.750000 -0.500000
v -0.750000 0.500000 1.000000
v -0.500000 0.750000 1.000000
v 1.000000 0.500000 0.750000
v 1.000000 0.750000 0.500000
v 1.000000 0.750000 0.250000
v 1.000000 0.250000 0.750000
v -0.250000 0.750000 1.000000
v -0.750000 0.250000 1.000000
v -1.000000 0.750000 -0.250000
v -1.000000 0.250000 -0.750000
v -0.250000 -0.750000 -1.000000
v -0.750000 -0.250000 -1.000000
v -0.250000 0.750000 -1.000000
v -0.750000 0.750000 -1.000000
v 0.750000 0.250000 -1.000000
v 0.750000 0.750000 -1.000000
v 0.250000 0.750000 -1.000000
v 0.750000 -0.750000 -1.000000
v 0.750000 -0.250000 -1.000000
v -1.000000 -0.750000 -0.250000
v -1.000000 -0.750000 -0.750000
v -1.000000 -0.250000 0.750000
v -1.000000 -0.750000 0.750000
v -1.000000 -0.750000 0.250000
v -1.000000 0.750000 0.750000
v -1.000000 0.250000 0.750000
v -0.250000 -0.750000 1.000000
v -0.750000 -0.750000 1.000000
v 0.750000 -0.250000 1.000000
v 0.750000 -0.750000 1.000000
v 0.250000 -0.750000 1.000000
v 0.749999 0.750000 1.000000
v 0.750000 0.250000 1.000000
v 1.000000 -0.750000 0.250000
v 1.000000 -0.750000 0.750000
v 1.000000 -0.250000 -0.750000
v 1.000000 -0.750000 -0.750000
v 1.000000 -0.750000 -0.250000
v 1.000000 0.750000 -0.750000
v 1.000000 0.250000 -0.750000
v 1.000000 0.750000 -0.250000
v 1.000000 -0.250000 0.750000
v 0.249999 0.750000 1.000000
v -0.750000 -0.250000 1.000000
v -1.000000 0.750000 0.250000
v -1.000000 -0.250000 -0.750000
v 0.250000 -0.750000 -1.000000
v -0.750000 0.250000 -1.000000
v -0.750000 -0.750000 -1.000000
v -1.000000 0.750000 -0.750000
v -0.750000 0.750000 1.000000
v 1.000000 0.750000 0.750000
vn 0.0000 0.0000 -1.0000
vn -1.0000 -0.0000 -0.0000
vn -0.0000 0.0000 1.0000
vn 1.0000 -0.0000 0.0000
vn 0.0000 -1.0000 0.0000
vn 0.0000 1.0000 0.0000
usemtl Material.001
s off
f 46//1 4//1 96//1 185//1 134//1 147//1 102//1 183//1 128//1 154//1 91//1 1//1 90//1 34//1 58//1 10//1 78//1 22//1
f 184//1 69//1 148//1 133//1 185//1 96//1 40//1 64//1 16//1 84//1 28//1 52//1 150//1 131//1
f 182//2 71//2 146//2 135//2 186//2 52//2 28//2 84//2 16//2 64//2 40//2 96//2 157//2 125//2
f 180//3 73//3 144//3 137//3 187//3 51//3 27//3 83//3 15//3 63//3 39//3 95//3 164//3 119//3
f 156//2 126//2 157//2 96//2 4//2 50//2 26//2 82//2 14//2 62//2 38//2 94//2 3//2 95//2 159//2 124//2 160//2 72//2
f 53//4 6//4 49//4 188//4 140//4 141//4 108//4 177//4 110//4 175//4 47//4 5//4 97//4 41//4 65//4 17//4 85//4 29//4
f 55//3 7//3 51//3 187//3 138//3 143//3 106//3 179//3 116//3 168//3 49//3 6//3 99//3 43//3 67//3 19//3 87//3 31//3
f 163//3 120//3 164//3 95//3 3//3 48//3 24//3 80//3 12//3 60//3 36//3 92//3 2//3 93//3 166//3 118//3 167//3 74//3
f 178//4 75//4 142//4 139//4 188//4 49//4 25//4 81//4 13//4 61//4 37//4 93//4 171//4 113//4
f 23//1 79//1 11//1 59//1 35//1 91//1 154//1 127//1 155//1 101//1 151//1 129//1 152//1 47//1
f 170//4 114//4 171//4 93//4 2//4 45//4 21//4 77//4 9//4 57//4 33//4 89//4 1//4 91//4 173//4 112//4 174//4 76//4
f 48//5 3//5 94//5 38//5 62//5 14//5 82//5 26//5 50//5 4//5 46//5 22//5 78//5 10//5 58//5 34//5 90//5 1//5 89//5 33//5 57//5 9//5 77//5 21//5 45//5 2//5 92//5 36//5 60//5 12//5 80//5 24//5
f 56//2 8//2 52//2 186//2 136//2 145//2 104//2 181//2 122//2 161//2 51//2 7//2 100//2 44//2 68//2 20//2 88//2 32//2
f 149//1 132//1 150//1 52//1 8//1 54//1 30//1 86//1 18//1 66//1 42//1 98//1 5//1 47//1 152//1 130//1 153//1 70//1
f 100//6 7//6 55//6 31//6 87//6 19//6 67//6 43//6 99//6 6//6 53//6 29//6 85//6 17//6 65//6 41//6 97//6 5//6 98//6 42//6 66//6 18//6 86//6 30//6 54//6 8//6 56//6 32//6 88//6 20//6 68//6 44//6
f 39//2 63//2 15//2 83//2 27//2 51//2 161//2 121//2 162//2 103//2 158//2 123//2 159//2 95//2
f 37//3 61//3 13//3 81//3 25//3 49//3 168//3 115//3 169//3 105//3 165//3 117//3 166//3 93//3
f 35//4 59//4 11//4 79//4 23//4 47//4 175//4 109//4 176//4 107//4 172//4 111//4 173//4 91//4
usemtl Material.002
f 151//1 101//1 155//1 127//1 154//1 128//1 183//1 102//1 147//1 134//1 185//1 133//1 148//1 69//1 184//1 131//1 150//1 132//1 149//1 70//1 153//1 130//1 152//1 129//1
f 165//3 105//3 169//3 115//3 168//3 116//3 179//3 106//3 143//3 138//3 187//3 137//3 144//3 73//3 180//3 119//3 164//3 120//3 163//3 74//3 167//3 118//3 166//3 117//3
usemtl Material.003
f 158//2 103//2 162//2 121//2 161//2 122//2 181//2 104//2 145//2 136//2 186//2 135//2 146//2 71//2 182//2 125//2 157//2 126//2 156//2 72//2 160//2 124//2 159//2 123//2
f 172//4 107//4 176//4 109//4 175//4 110//4 177//4 108//4 141//4 140//4 188//4 139//4 142//4 75//4 178//4 113//4 171//4 114//4 170//4 76//4 174//4 112//4 173//4 111//4
